# xmcd
#
# Track frame offsets:
#	150
#	24987
#	40089
#	61363
#	77284
#	93267
#	110226
#	124548
#	141197
#	161436
#	179882
#	198527
#
# Disc length: 2906 seconds
#
# Revision: 0
# Processed by: cddbd v1.5.2PL0 Copyright (c) Steve Scherf et al.
# Submitted via: audiograbber 1.83.01
#
DISCID=9d0b580c
DTITLE=Various Artist - Bella Bellissima
DYEAR=1900
DGENRE=Italo Pop
TTITLE0=Fabrizio De André  - Andrea
TTITLE1=Collage  - La Gente Parla
TTITLE2=Alunni Del Sole  - Tarante´
TTITLE3=Mal  - Male D'Anima
TTITLE4=Franco Simone  - Paesaggio
TTITLE5=Milva  - Sogno Di Libertá
TTITLE6=Drupi  - Buona Notte
TTITLE7=Laura Luca  - Ragazzo Fragile
TTITLE8=Gianni Mocchetti  - Talismano Nero
TTITLE9=Iva Zanicchi  - Per Te
TTITLE10=Homo Sapiens   - Una Dolce Malattia
TTITLE11=Mino Vergnaghi  - Amare
EXTD=
EXTT0=
EXTT1=
EXTT2=
EXTT3=
EXTT4=
EXTT5=
EXTT6=
EXTT7=
EXTT8=
EXTT9=
EXTT10=
EXTT11=
PLAYORDER=
